<svg width="14" height="14" viewBox="0 0 24 24" fill="none" xmlns="http://www.w3.org/2000/svg">
  <path d="M15.3995 5.9967C15.1435 5.9967 14.9075 6.11372 14.7125 6.30872L5.9625 15.0277C5.7045 15.2857 5.44549 15.2687 5.24349 14.9657L3.83649 12.8717C3.53048 12.4127 2.92049 12.2837 2.46249 12.5907C2.00349 12.8967 1.87449 13.5057 2.18049 13.9657L3.58648 16.0587C4.48849 17.4127 6.2505 17.5847 7.3995 16.4347L16.1185 7.7157C16.5085 7.3247 16.5085 6.69972 16.1185 6.30872C15.9235 6.11372 15.6555 5.9967 15.3995 5.9967ZM21.0245 5.9967C20.7685 5.9967 20.5005 6.08271 20.3055 6.27771C20.3055 6.27771 9.95952 16.5967 9.83652 16.6847C10.7845 17.3817 12.0755 17.3537 12.9935 16.4347L21.7435 7.7157C22.1335 7.3247 22.1335 6.66871 21.7435 6.27771C21.5485 6.08271 21.2805 5.9967 21.0245 5.9967Z" fill="#242424"/>
</svg>
