<?xml version="1.0" encoding="utf-8"?>
<svg xmlns="http://www.w3.org/2000/svg" xmlns:xlink="http://www.w3.org/1999/xlink">
  <symbol id="remove" viewBox="0 0 24 24">
    <path d="M10.8633 12.3027C10.5704 12.0098 10.0956 12.0098 9.80267 12.3027C9.50978 12.5956 9.50978 13.0704 9.80267 13.3633L10.8633 12.3027ZM11.4697 15.0303C11.7626 15.3232 12.2374 15.3232 12.5303 15.0303C12.8232 14.7374 12.8232 14.2626 12.5303 13.9697L11.4697 15.0303ZM9.80267 15.6367C9.50978 15.9296 9.50978 16.4044 9.80267 16.6973C10.0956 16.9902 10.5704 16.9902 10.8633 16.6973L9.80267 15.6367ZM12.5303 15.0303C12.8232 14.7374 12.8232 14.2626 12.5303 13.9697C12.2374 13.6768 11.7626 13.6768 11.4697 13.9697L12.5303 15.0303ZM14.1973 13.3633C14.4902 13.0704 14.4902 12.5956 14.1973 12.3027C13.9044 12.0098 13.4296 12.0098 13.1367 12.3027L14.1973 13.3633ZM11.4697 13.9697C11.1768 14.2626 11.1768 14.7374 11.4697 15.0303C11.7626 15.3232 12.2374 15.3232 12.5303 15.0303L11.4697 13.9697ZM13.1367 16.6973C13.4296 16.9902 13.9044 16.9902 14.1973 16.6973C14.4902 16.4044 14.4902 15.9296 14.1973 15.6367L13.1367 16.6973ZM12.5303 13.9697C12.2374 13.6768 11.7626 13.6768 11.4697 13.9697C11.1768 14.2626 11.1768 14.7374 11.4697 15.0303L12.5303 13.9697ZM13.762 6.25C14.1762 6.25 14.512 5.91421 14.512 5.5C14.512 5.08579 14.1762 4.75 13.762 4.75V6.25ZM10.429 4.75C10.0148 4.75 9.679 5.08579 9.679 5.5C9.679 5.91421 10.0148 6.25 10.429 6.25V4.75ZM17 8.25C17.4142 8.25 17.75 7.91421 17.75 7.5C17.75 7.08579 17.4142 6.75 17 6.75V8.25ZM7 6.75C6.58579 6.75 6.25 7.08579 6.25 7.5C6.25 7.91421 6.58579 8.25 7 8.25V6.75ZM7.73223 18.7678L7.2019 19.2981L7.2019 19.2981L7.73223 18.7678ZM7 17H7.75H7ZM9.80267 13.3633L11.4697 15.0303L12.5303 13.9697L10.8633 12.3027L9.80267 13.3633ZM10.8633 16.6973L12.5303 15.0303L11.4697 13.9697L9.80267 15.6367L10.8633 16.6973ZM13.1367 12.3027L11.4697 13.9697L12.5303 15.0303L14.1973 13.3633L13.1367 12.3027ZM14.1973 15.6367L12.5303 13.9697L11.4697 15.0303L13.1367 16.6973L14.1973 15.6367ZM13.762 4.75H10.429V6.25H13.762V4.75ZM17 6.75H7V8.25H17V6.75ZM7.833 10.25H16.167V8.75H7.833V10.25ZM16.167 10.25C16.2128 10.25 16.25 10.2872 16.25 10.333H17.75C17.75 9.45873 17.0413 8.75 16.167 8.75V10.25ZM16.25 10.333V17H17.75V10.333H16.25ZM16.25 17C16.25 17.9665 15.4665 18.75 14.5 18.75V20.25C16.2949 20.25 17.75 18.7949 17.75 17H16.25ZM14.5 18.75H9.5V20.25H14.5V18.75ZM9.5 18.75C9.03587 18.75 8.59075 18.5656 8.26256 18.2374L7.2019 19.2981C7.8114 19.9076 8.63805 20.25 9.5 20.25V18.75ZM8.26256 18.2374C7.93437 17.9092 7.75 17.4641 7.75 17H6.25C6.25 17.862 6.59241 18.6886 7.2019 19.2981L8.26256 18.2374ZM7.75 17V10.333H6.25V17H7.75ZM7.75 10.333C7.75 10.2872 7.78716 10.25 7.833 10.25V8.75C6.95873 8.75 6.25 9.45873 6.25 10.333H7.75Z" />
  </symbol>
  <symbol id="removeAll" viewBox="0 0 12 17">
    <path d="M5.35688 12.6141C5.14377 12.9693 5.25894 13.43 5.61413 13.6431C5.96931 13.8562 6.43001 13.7411 6.64312 13.3859L5.35688 12.6141ZM8.14312 10.8859C8.35623 10.5307 8.24106 10.07 7.88588 9.85688C7.53069 9.64376 7.07 9.75894 6.85688 10.1141L8.14312 10.8859ZM9.64312 8.38587C9.85623 8.03069 9.74106 7.56999 9.38588 7.35688C9.03069 7.14377 8.57 7.25894 8.35688 7.61413L9.64312 8.38587ZM6.85688 10.1141C6.64377 10.4693 6.75894 10.93 7.11413 11.1431C7.46931 11.3562 7.93001 11.2411 8.14312 10.8859L6.85688 10.1141ZM3.6 8.55C3.35147 8.21863 2.88137 8.15147 2.55 8.4C2.21863 8.64853 2.15147 9.11863 2.4 9.45L3.6 8.55ZM3.9 11.45C4.14853 11.7814 4.61863 11.8485 4.95 11.6C5.28137 11.3515 5.34853 10.8814 5.1 10.55L3.9 11.45ZM5.4 13.45C5.64853 13.7814 6.11863 13.8485 6.45 13.6C6.78137 13.3515 6.84853 12.8814 6.6 12.55L5.4 13.45ZM5.1 10.55C4.85147 10.2186 4.38137 10.1515 4.05 10.4C3.71863 10.6485 3.65147 11.1186 3.9 11.45L5.1 10.55ZM7.762 2.25C8.17621 2.25 8.512 1.91421 8.512 1.5C8.512 1.08579 8.17621 0.75 7.762 0.75V2.25ZM4.429 0.75C4.01479 0.75 3.679 1.08579 3.679 1.5C3.679 1.91421 4.01479 2.25 4.429 2.25V0.75ZM11 4.25C11.4142 4.25 11.75 3.91421 11.75 3.5C11.75 3.08579 11.4142 2.75 11 2.75V4.25ZM1 2.75C0.585786 2.75 0.25 3.08579 0.25 3.5C0.25 3.91421 0.585786 4.25 1 4.25V2.75ZM1.73223 14.7678L1.2019 15.2981L1.2019 15.2981L1.73223 14.7678ZM1 13H1.75H1ZM6.64312 13.3859L8.14312 10.8859L6.85688 10.1141L5.35688 12.6141L6.64312 13.3859ZM8.35688 7.61413L6.85688 10.1141L8.14312 10.8859L9.64312 8.38587L8.35688 7.61413ZM2.4 9.45L3.9 11.45L5.1 10.55L3.6 8.55L2.4 9.45ZM6.6 12.55L5.1 10.55L3.9 11.45L5.4 13.45L6.6 12.55ZM7.762 0.75H4.429V2.25H7.762V0.75ZM11 2.75H1V4.25H11V2.75ZM1.833 6.25H10.167V4.75H1.833V6.25ZM10.167 6.25C10.2128 6.25 10.25 6.28716 10.25 6.333H11.75C11.75 5.45873 11.0413 4.75 10.167 4.75V6.25ZM10.25 6.333V13H11.75V6.333H10.25ZM10.25 13C10.25 13.9665 9.4665 14.75 8.5 14.75V16.25C10.2949 16.25 11.75 14.7949 11.75 13H10.25ZM8.5 14.75H3.5V16.25H8.5V14.75ZM3.5 14.75C3.03587 14.75 2.59075 14.5656 2.26256 14.2374L1.2019 15.2981C1.8114 15.9076 2.63805 16.25 3.5 16.25V14.75ZM2.26256 14.2374C1.93437 13.9092 1.75 13.4641 1.75 13H0.25C0.25 13.862 0.59241 14.6886 1.2019 15.2981L2.26256 14.2374ZM1.75 13V6.333H0.25V13H1.75ZM1.75 6.333C1.75 6.28716 1.78716 6.25 1.833 6.25V4.75C0.958733 4.75 0.25 5.45873 0.25 6.333H1.75Z" />
  </symbol>
</svg>