<svg width="12" height="17" viewBox="0 0 12 17" fill="none" xmlns="http://www.w3.org/2000/svg">
<path d="M5.35688 12.6141C5.14377 12.9693 5.25894 13.43 5.61413 13.6431C5.96931 13.8562 6.43001 13.7411 6.64312 13.3859L5.35688 12.6141ZM8.14312 10.8859C8.35623 10.5307 8.24106 10.07 7.88588 9.85688C7.53069 9.64376 7.07 9.75894 6.85688 10.1141L8.14312 10.8859ZM9.64312 8.38587C9.85623 8.03069 9.74106 7.56999 9.38588 7.35688C9.03069 7.14377 8.57 7.25894 8.35688 7.61413L9.64312 8.38587ZM6.85688 10.1141C6.64377 10.4693 6.75894 10.93 7.11413 11.1431C7.46931 11.3562 7.93001 11.2411 8.14312 10.8859L6.85688 10.1141ZM3.6 8.55C3.35147 8.21863 2.88137 8.15147 2.55 8.4C2.21863 8.64853 2.15147 9.11863 2.4 9.45L3.6 8.55ZM3.9 11.45C4.14853 11.7814 4.61863 11.8485 4.95 11.6C5.28137 11.3515 5.34853 10.8814 5.1 10.55L3.9 11.45ZM5.4 13.45C5.64853 13.7814 6.11863 13.8485 6.45 13.6C6.78137 13.3515 6.84853 12.8814 6.6 12.55L5.4 13.45ZM5.1 10.55C4.85147 10.2186 4.38137 10.1515 4.05 10.4C3.71863 10.6485 3.65147 11.1186 3.9 11.45L5.1 10.55ZM7.762 2.25C8.17621 2.25 8.512 1.91421 8.512 1.5C8.512 1.08579 8.17621 0.75 7.762 0.75V2.25ZM4.429 0.75C4.01479 0.75 3.679 1.08579 3.679 1.5C3.679 1.91421 4.01479 2.25 4.429 2.25V0.75ZM11 4.25C11.4142 4.25 11.75 3.91421 11.75 3.5C11.75 3.08579 11.4142 2.75 11 2.75V4.25ZM1 2.75C0.585786 2.75 0.25 3.08579 0.25 3.5C0.25 3.91421 0.585786 4.25 1 4.25V2.75ZM1.73223 14.7678L1.2019 15.2981L1.2019 15.2981L1.73223 14.7678ZM1 13H1.75H1ZM6.64312 13.3859L8.14312 10.8859L6.85688 10.1141L5.35688 12.6141L6.64312 13.3859ZM8.35688 7.61413L6.85688 10.1141L8.14312 10.8859L9.64312 8.38587L8.35688 7.61413ZM2.4 9.45L3.9 11.45L5.1 10.55L3.6 8.55L2.4 9.45ZM6.6 12.55L5.1 10.55L3.9 11.45L5.4 13.45L6.6 12.55ZM7.762 0.75H4.429V2.25H7.762V0.75ZM11 2.75H1V4.25H11V2.75ZM1.833 6.25H10.167V4.75H1.833V6.25ZM10.167 6.25C10.2128 6.25 10.25 6.28716 10.25 6.333H11.75C11.75 5.45873 11.0413 4.75 10.167 4.75V6.25ZM10.25 6.333V13H11.75V6.333H10.25ZM10.25 13C10.25 13.9665 9.4665 14.75 8.5 14.75V16.25C10.2949 16.25 11.75 14.7949 11.75 13H10.25ZM8.5 14.75H3.5V16.25H8.5V14.75ZM3.5 14.75C3.03587 14.75 2.59075 14.5656 2.26256 14.2374L1.2019 15.2981C1.8114 15.9076 2.63805 16.25 3.5 16.25V14.75ZM2.26256 14.2374C1.93437 13.9092 1.75 13.4641 1.75 13H0.25C0.25 13.862 0.59241 14.6886 1.2019 15.2981L2.26256 14.2374ZM1.75 13V6.333H0.25V13H1.75ZM1.75 6.333C1.75 6.28716 1.78716 6.25 1.833 6.25V4.75C0.958733 4.75 0.25 5.45873 0.25 6.333H1.75Z" fill="black"/>
</svg>
