<?xml version="1.0" encoding="utf-8"?>
<svg xmlns="http://www.w3.org/2000/svg" xmlns:xlink="http://www.w3.org/1999/xlink">
  <symbol id="geolocation" viewBox="0 0 25 25">
    <path d="M12.44 2C11.47 2 10.51 2.24999 9.67001 2.73999C8.83001 3.22999 8.13001 3.92999 7.64001 4.76999C7.15001 5.60999 6.90002 6.57001 6.90002 7.54001C6.90002 8.51001 7.16001 9.47 7.64001 10.31L12.44 18.63L17.24 10.31C17.73 9.47 17.98 8.51001 17.99 7.54001C17.99 6.57001 17.73 5.60999 17.25 4.76999C16.76 3.92999 16.06 3.22999 15.22 2.73999C14.38 2.24999 13.42 2 12.45 2H12.44ZM12.44 9.70001C11.98 9.70001 11.52 9.56 11.14 9.31C10.75 9.05 10.45 8.69001 10.28 8.26001C10.1 7.83001 10.06 7.36 10.15 6.91C10.24 6.46 10.46 6.03999 10.79 5.70999C11.12 5.37999 11.53 5.16001 11.99 5.07001C12.44 4.98001 12.92 5.03001 13.34 5.20001C13.77 5.38001 14.13 5.68 14.39 6.06C14.65 6.45 14.78 6.89999 14.78 7.35999C14.78 7.97999 14.53 8.57999 14.09 9.01999C13.65 9.45999 13.05 9.70999 12.43 9.70999L12.44 9.70001Z" />
    <path d="M12.44 21.9999C8.83 21.9999 6 20.4599 6 18.4899C6 16.8699 7.83001 15.5399 10.65 15.0999C10.8 15.0799 10.96 15.1199 11.08 15.2099C11.21 15.2999 11.29 15.4399 11.32 15.5899C11.33 15.6699 11.32 15.7399 11.32 15.8199C11.3 15.8899 11.27 15.9699 11.22 16.0299C11.17 16.0899 11.12 16.1399 11.05 16.1799C10.98 16.2199 10.91 16.2499 10.84 16.2599C8.72 16.5899 7.18001 17.5299 7.18001 18.4899C7.18001 19.5999 9.34 20.8299 12.45 20.8299C15.56 20.8299 17.72 19.5999 17.72 18.4899C17.72 17.5199 16.18 16.5899 14.06 16.2599C13.91 16.2299 13.78 16.1499 13.69 16.0199C13.6 15.8999 13.57 15.7399 13.59 15.5899C13.61 15.4399 13.69 15.3099 13.81 15.2099C13.93 15.1199 14.08 15.0799 14.23 15.0899C17.02 15.5099 18.89 16.8699 18.89 18.4699C18.89 20.4499 16.06 21.9899 12.45 21.9899L12.44 21.9999Z" />
  </symbol>
</svg>
